<svg width="21" height="25" viewBox="0 0 21 25" fill="none" xmlns="http://www.w3.org/2000/svg">
<path d="M17.8102 12.8519C17.8328 15.2128 19.2053 16.5568 20.1851 17.2171C20.7062 17.5683 21.0184 18.188 20.7756 18.7564C20.4996 19.4025 20.0628 20.2832 19.4307 21.1789C18.3917 22.6511 17.3135 24.1179 15.6149 24.1482C13.9459 24.178 13.4092 23.1887 11.501 23.1887C9.5934 23.1887 8.99712 24.1179 7.41719 24.1781C5.77762 24.2383 4.52906 22.5862 3.48154 21.1193C1.34098 18.1189 -0.294853 12.6409 1.90166 8.94319C2.99284 7.10688 4.94286 5.94405 7.05943 5.91423C8.66945 5.88445 10.1891 6.96439 11.1733 6.96439C12.157 6.96439 14.0036 5.66567 15.945 5.85641C16.6123 5.88333 18.2696 6.0806 19.6521 7.3009C20.1772 7.76433 19.9902 8.55193 19.4838 9.03449C18.7136 9.76842 17.7933 11.0275 17.8102 12.8519ZM14.6735 3.87139C15.312 3.12199 15.7974 2.15705 15.9476 1.13748C16.0403 0.508805 15.4535 0.0265111 14.8313 0.224847C13.8856 0.526256 12.9365 1.12008 12.2981 1.84439C11.6802 2.53701 11.1211 3.5483 10.9791 4.60708C10.9032 5.17275 11.4035 5.63223 11.9787 5.51231C13.0272 5.29372 14.0117 4.64853 14.6735 3.87139Z" fill="#1A1D1F"/>
</svg>
