<svg width="25" height="25" viewBox="0 0 25 25" fill="none" xmlns="http://www.w3.org/2000/svg">
<g clip-path="url(#clip0_4015_3183)">
<g clip-path="url(#clip1_4015_3183)">
<path d="M23.8858 12.4497C23.8858 11.6597 23.8158 10.9097 23.6958 10.1797H12.3958V14.6897H18.8658C18.5758 16.1697 17.7258 17.4197 16.4658 18.2697V21.2697H20.3258C22.5858 19.1797 23.8858 16.0997 23.8858 12.4497Z" fill="#4285F4"/>
<path d="M12.3958 24.1797C15.6358 24.1797 18.3458 23.0997 20.3258 21.2697L16.4658 18.2697C15.3858 18.9897 14.0158 19.4297 12.3958 19.4297C9.26581 19.4297 6.61582 17.3197 5.66582 14.4697H1.68581V17.5597C3.65581 21.4797 7.70581 24.1797 12.3958 24.1797Z" fill="#34A853"/>
<path d="M5.66581 14.4697C5.41581 13.7497 5.28581 12.9797 5.28581 12.1797C5.28581 11.3797 5.42581 10.6097 5.66581 9.88968V6.79968H1.68581C0.865812 8.41968 0.395813 10.2397 0.395813 12.1797C0.395813 14.1197 0.865812 15.9397 1.68581 17.5597L5.66581 14.4697Z" fill="#FBBC05"/>
<path d="M12.3958 4.92969C14.1658 4.92969 15.7458 5.53969 16.9958 6.72969L20.4158 3.30969C18.3458 1.36969 15.6358 0.179688 12.3958 0.179688C7.70581 0.179688 3.65581 2.87969 1.68581 6.79969L5.66582 9.88969C6.61582 7.03969 9.26581 4.92969 12.3958 4.92969Z" fill="#EA4335"/>
</g>
</g>
<defs>
<clipPath id="clip0_4015_3183">
<rect width="24" height="24" fill="white" transform="translate(0.140808 0.179688)"/>
</clipPath>
<clipPath id="clip1_4015_3183">
<rect width="24" height="24" fill="white" transform="translate(0.140808 0.179688)"/>
</clipPath>
</defs>
</svg>
